<?xml version="1.0" encoding="utf-8"?>
<!-- Generator: Adobe Illustrator 17.0.0, SVG Export Plug-In . SVG Version: 6.00 Build 0)  -->
<!DOCTYPE svg PUBLIC "-//W3C//DTD SVG 1.1//EN" "http://www.w3.org/Graphics/SVG/1.1/DTD/svg11.dtd">
<svg version="1.1" xmlns="http://www.w3.org/2000/svg" xmlns:xlink="http://www.w3.org/1999/xlink" x="0px" y="0px"
	 width="363.017px" height="360px" viewBox="0 0 363.017 360" enable-background="new 0 0 363.017 360" xml:space="preserve">
<g id="Layer_2">
</g>
<g id="Layer_1">
	<path fill="#FFFFFF" stroke="#C0DA99" stroke-width="10" stroke-miterlimit="10" d="M322.672,189.51
		c0,74.62-60.49,135.11-135.11,135.11c-74.62,0-135.11-60.49-135.11-135.11c0-74.618,60.49-135.109,135.11-135.109
		C262.182,54.401,322.672,114.893,322.672,189.51"/>
	<path fill="#C0DA99" d="M194.319,105.52c5.544,1.344,11.257,2.21,16.603,4.111c32.586,11.591,53.521,34.199,59.785,68.243
		c7.974,43.335-17.271,83.119-57.827,95.497c-44.364,13.54-89.632-12.447-100.724-57.309c-7.801-31.551,7.655-66.489,36.306-82.097
		c1.879-1.023,3.903-2.197,5.338,0.285c1.393,2.409-0.459,3.672-2.315,4.851c-20.111,12.778-31.119,31.205-31.984,54.879
		c-1.262,34.534,23.819,62.029,54.46,67.602c37.544,6.828,70.186-18.069,77.682-51.111c8.367-36.88-17.44-75.098-54.918-80.245
		c-2.576-0.354-5.174-0.69-7.768-0.748c-7.971-0.177-12.863-3.274-14.315-9.252c-1.488-6.127,1.6-11.204,8.946-14.707
		C187.165,105.52,190.742,105.52,194.319,105.52z"/>
	<path fill="#C0DA99" d="M164.985,157.999c0.968,1.182,2.046,2.291,2.885,3.559c5.439,8.218,10.753,16.52,16.287,24.673
		c1.158,1.706,2.913,3.123,4.649,4.293c2.487,1.676,3.406,3.698,3.682,6.745c0.236,2.602,1.814,5.183,3.181,7.554
		c1.394,2.418,2.233,4.001-1.02,5.875c-3.16,1.82-4.037,0.161-5.285-2.013c-1.782-3.106-3.019-6.551-6.843-8.186
		c-1.17-0.5-1.694-2.883-2.189-4.503c-0.765-2.501-0.826-5.29-1.929-7.602c-4.054-8.5-8.428-16.846-12.646-25.269
		c-0.705-1.408-1.232-2.905-1.842-4.361C164.272,158.509,164.628,158.254,164.985,157.999z"/>
	<path fill="#C0DA99" d="M141.089,193.733c1.049,3.705,0.044,5.117-3.416,4.918c-3.679-0.212-7.398,0.156-11.06-0.173
		c-1.1-0.099-2.067-1.681-3.095-2.583c1.034-0.72,2.041-2.012,3.106-2.063C131.379,193.605,136.151,193.733,141.089,193.733z"/>
	<path fill="#C0DA99" d="M183.71,240.959c2.117,0,3.198,0,4.594,0c0,5.709,0,11.35,0,17.129c-2.91,0.863-4.761,0.602-4.632-3.143
		C183.831,250.354,183.71,245.754,183.71,240.959z"/>
	<path fill="#C0DA99" d="M183.703,133.785c1.833-0.091,3.039-0.151,4.881-0.243c0,5.429,0.087,10.697-0.117,15.954
		c-0.024,0.619-1.712,1.711-2.511,1.614c-0.826-0.1-2.121-1.358-2.153-2.152C183.604,144.068,183.703,139.166,183.703,133.785z"/>
	<path fill="#C0DA99" d="M248.643,193.975c0,1.616,0,2.823,0,4.591c-5.224,0-10.287,0.193-15.309-0.167
		c-0.973-0.07-1.79-2.3-3.322-4.424C237.199,193.975,242.769,193.975,248.643,193.975z"/>
	<path fill="#C0DA99" d="M239.566,163.361c0.696,1.081,1.19,1.846,1.865,2.894c-3.549,2.016-6.882,4.051-10.376,5.758
		c-0.6,0.293-1.884-0.815-3.564-1.616C232.467,167.498,235.832,165.537,239.566,163.361z"/>
	<path fill="#C0DA99" d="M218.711,249.48c-0.778,0.455-1.572,0.92-2.571,1.505c-2.084-3.576-4.062-6.971-6.033-10.355
		C213.258,238.399,215.164,240.391,218.711,249.48z"/>
	<path fill="#C0DA99" d="M155.313,250.848c-0.229-1.148-0.975-2.526-0.588-3.4c1.102-2.485,2.566-4.835,4.117-7.079
		c0.41-0.593,1.651-0.613,2.51-0.895c0.118,0.821,0.604,1.833,0.293,2.431c-1.564,3.007-3.336,5.905-5.035,8.842
		C156.178,250.78,155.746,250.814,155.313,250.848z"/>
	<path fill="#C0DA99" d="M216.137,141.135c1.039,0.617,1.915,1.138,2.901,1.723c-2.103,3.613-4.066,6.986-6.026,10.354
		c-2.686-0.493-3.22-1.582-1.742-3.819C212.982,146.802,214.441,144.041,216.137,141.135z"/>
	<path fill="#C0DA99" d="M133.164,228.628c-1.963-1.808-1.952-3.054,0.335-4.19c2.321-1.153,4.484-2.628,6.818-3.75
		c0.633-0.304,1.634,0.159,2.467,0.269c-0.296,0.876-0.324,2.157-0.933,2.557C139.124,225.311,136.233,226.856,133.164,228.628z"/>
	<path fill="#C0DA99" d="M131.294,166.263c2.194-3.052,3.192-2.87,10.137,2.06c0.852,0.605,0.969,2.246,1.426,3.407
		c-0.4,0.195-0.8,0.391-1.199,0.586C138.286,170.347,134.914,168.378,131.294,166.263z"/>
	<path fill="#C0DA99" d="M159.726,153.464c-1.81-3.123-3.581-5.847-4.959-8.758c-0.414-0.874,0.269-2.268,0.587-4.299
		C161.554,147.955,162.686,151.347,159.726,153.464z"/>
	<path fill="#C0DA99" d="M241.198,226.057c-2.134,2.971-2.427,2.881-11.713-3.341C230.667,219.074,232.011,219.443,241.198,226.057z
		"/>
</g>
</svg>
