<?xml version="1.0" encoding="utf-8"?>
<!-- Generator: Adobe Illustrator 17.0.0, SVG Export Plug-In . SVG Version: 6.00 Build 0)  -->
<!DOCTYPE svg PUBLIC "-//W3C//DTD SVG 1.1//EN" "http://www.w3.org/Graphics/SVG/1.1/DTD/svg11.dtd">
<svg version="1.1" xmlns="http://www.w3.org/2000/svg" xmlns:xlink="http://www.w3.org/1999/xlink" x="0px" y="0px"
	 width="363.017px" height="360px" viewBox="0 0 363.017 360" enable-background="new 0 0 363.017 360" xml:space="preserve">
<g id="Layer_2">
</g>
<g id="Layer_1">
	<g>
		<path fill="#FFFFFF" stroke="#1F8CC3" stroke-width="10" stroke-miterlimit="10" d="M314.406,179.999
			c0,73.398-59.5,132.897-132.897,132.897c-73.398,0-132.897-59.5-132.897-132.897c0-73.395,59.5-132.896,132.897-132.896
			C254.906,47.103,314.406,106.604,314.406,179.999"/>
		<path fill="#1F8CC3" d="M78.646,174.856c0-13.066,4.76-24.235,14.28-33.506c9.52-9.271,21-13.906,34.439-13.906
			c10.578,0,20.066,2.987,28.466,8.96s14.28,13.689,17.64,23.146l12.32-11.946l29.493,28.373l72.106-80.091l25.152,61.829
			l-65.525,49.062l6.347,6.72l-67.759,65.892l-58.986-57.306c-13.315-0.249-24.64-4.978-33.973-14.186
			S78.646,187.674,78.646,174.856z"/>
		<path fill="#FFFFFF" d="M85.552,175.437c0,11.2,4.044,20.72,12.133,28.56s17.857,11.76,29.306,11.76
			c4.107,0,8.151-0.56,12.133-1.68l41.066,36.399L305.269,157.3l-19.736-50.269L181.684,219.49l-16.8-27.253
			c2.489-5.351,3.733-10.951,3.733-16.8c0-11.075-4.075-20.564-12.226-28.466c-8.151-7.902-17.951-11.853-29.4-11.853
			c-11.449,0-21.217,3.951-29.306,11.853S85.552,164.361,85.552,175.437z"/>
		<path fill="#A9CF38" d="M94.512,175.23c0-8.711,3.08-16.146,9.24-22.306c6.16-6.16,13.595-9.24,22.306-9.24
			s16.146,3.049,22.306,9.147c6.16,6.098,9.24,13.564,9.24,22.4c0,8.711-3.08,16.146-9.24,22.306
			c-6.16,6.16-13.595,9.24-22.306,9.24s-16.146-3.08-22.306-9.24C97.592,191.376,94.512,183.941,94.512,175.23z"/>
	</g>
</g>
</svg>
