<?xml version="1.0" encoding="utf-8"?>
<!-- Generator: Adobe Illustrator 17.0.0, SVG Export Plug-In . SVG Version: 6.00 Build 0)  -->
<!DOCTYPE svg PUBLIC "-//W3C//DTD SVG 1.1//EN" "http://www.w3.org/Graphics/SVG/1.1/DTD/svg11.dtd">
<svg version="1.1" xmlns="http://www.w3.org/2000/svg" xmlns:xlink="http://www.w3.org/1999/xlink" x="0px" y="0px"
	 width="363.017px" height="360px" viewBox="0 0 363.017 360" enable-background="new 0 0 363.017 360" xml:space="preserve">
<g id="Layer_2">
</g>
<g id="Layer_1">
	<path fill="#FFFFFF" stroke="#EBA7A1" stroke-width="10" stroke-miterlimit="10" d="M311.229,179.999
		c0,75.037-60.829,135.865-135.865,135.865c-75.037,0-135.865-60.829-135.865-135.865c0-75.035,60.828-135.864,135.865-135.864
		C250.401,44.135,311.229,104.965,311.229,179.999"/>
	<path fill="#EBA7A1" d="M175.499,125.528c20.774,0,41.548-0.004,62.322,0.002c5.224,0.002,6.781,1.564,6.781,6.752
		c0.001,31.81-0.078,63.621,0.081,95.43c0.025,4.983-2.955,6.603-6.544,6.75c-0.556,0.023-1.113,0.007-1.669,0.007
		c-40.621,0-81.241,0.001-121.862-0.007c-1.016,0-2.045-0.013-3.044-0.169c-3.791-0.591-5.491-2.539-5.503-6.403
		c-0.03-9.738-0.01-19.476-0.01-29.213c0-21.98-0.002-43.959,0.001-65.939c0.001-5.386,1.793-7.205,7.125-7.207
		C133.951,125.524,154.725,125.528,175.499,125.528z M233.399,135.718c-0.955-0.053-1.592-0.12-2.23-0.12
		c-37.092-0.005-74.183,0.022-111.274-0.063c-2.576-0.006-2.786,1.073-2.783,3.142c0.049,27.448,0.031,54.895,0.04,82.343
		c0,0.978,0.113,1.957,0.173,2.926c38.869,0,77.402,0,116.074,0C233.399,194.506,233.399,165.246,233.399,135.718z M235.664,179.685
		c1.547,1.253,2.571,2.672,3.304,2.535c1.041-0.195,1.868-1.534,2.786-2.385c-0.841-0.835-1.602-2.205-2.546-2.345
		C238.362,177.365,237.316,178.595,235.664,179.685z"/>
	<circle fill="#FFFFFF" cx="239.014" cy="179.288" r="3.618"/>
	<circle fill="#FFFFFF" cx="111.81" cy="179.288" r="0.835"/>
</g>
</svg>
