<?xml version="1.0" encoding="utf-8"?>
<!-- Generator: Adobe Illustrator 17.0.0, SVG Export Plug-In . SVG Version: 6.00 Build 0)  -->
<!DOCTYPE svg PUBLIC "-//W3C//DTD SVG 1.1//EN" "http://www.w3.org/Graphics/SVG/1.1/DTD/svg11.dtd">
<svg version="1.1" xmlns="http://www.w3.org/2000/svg" xmlns:xlink="http://www.w3.org/1999/xlink" x="0px" y="0px"
	 width="363.017px" height="360px" viewBox="0 0 363.017 360" enable-background="new 0 0 363.017 360" xml:space="preserve">
<g id="Layer_2">
</g>
<g id="Layer_1">
	<circle fill="#FFFFFF" stroke="#A8ADD7" stroke-width="10.5212" stroke-miterlimit="10" cx="181.508" cy="185.885" r="134.232"/>
	<path fill="#A8ADD7" d="M146.324,106.945c-35.316,0-63.943,21.093-63.943,47.118c0,15.02,10.365,28.802,20.914,34.688
		c0,0-0.955,16.527-12.093,29.773c-11.136,13.245,41.322-18.458,41.322-18.458c4.446,0.723,9.057,1.11,13.8,1.11
		c35.312,0,63.943-21.092,63.943-47.113C210.268,128.038,181.637,106.945,146.324,106.945z"/>
	<g>
		<path fill="#A8ADD7" d="M264.614,269.207c-5.402,0-30.993-14.081-39.925-19.091c-4.004,0.605-8.087,0.912-12.151,0.912
			c-33.625,0-60.981-20.452-60.981-45.591s27.356-45.591,60.981-45.591c33.624,0,60.979,20.452,60.979,45.591
			c0,13.975-9.174,26.772-18.745,32.912c1.182,4.322,4.814,15.917,11.934,25.219c0.418,0.547,1.69,2.209,0.811,3.99
			C267.271,268.055,266.499,269.207,264.614,269.207z"/>
		<path fill="#FFFFFF" d="M212.538,162.347c32.3,0,58.479,19.289,58.479,43.091c0,13.738-9.479,26.342-19.127,31.728
			c0,0,3.481,15.708,12.83,27.923c0.866,1.132,0.745,1.62-0.106,1.62c-5.342,0-39.456-19.196-39.456-19.196
			c-4.066,0.661-8.283,1.017-12.62,1.017c-32.296,0-58.481-19.29-58.481-43.091C154.057,181.636,180.242,162.347,212.538,162.347
			 M212.538,157.347c-16.68,0-32.419,4.828-44.318,13.594c-12.358,9.105-19.164,21.356-19.164,34.497
			c0,13.14,6.806,25.391,19.164,34.496c11.899,8.767,27.638,13.595,44.318,13.595c3.902,0,7.822-0.274,11.676-0.817
			c2.873,1.598,9.461,5.233,16.355,8.831c17.974,9.38,21.836,10.165,24.045,10.165c2.28,0,4.203-1.137,5.144-3.042
			c0.715-1.448,1.111-3.771-1.067-6.616c-6.097-7.966-9.532-17.651-11.02-22.641c9.366-6.669,18.347-19.242,18.347-33.971
			c0-13.141-6.805-25.392-19.161-34.496C244.959,162.175,229.219,157.347,212.538,157.347L212.538,157.347z"/>
	</g>
</g>
</svg>
