<?xml version="1.0" encoding="utf-8"?>
<!-- Generator: Adobe Illustrator 17.0.0, SVG Export Plug-In . SVG Version: 6.00 Build 0)  -->
<!DOCTYPE svg PUBLIC "-//W3C//DTD SVG 1.1//EN" "http://www.w3.org/Graphics/SVG/1.1/DTD/svg11.dtd">
<svg version="1.1" xmlns="http://www.w3.org/2000/svg" xmlns:xlink="http://www.w3.org/1999/xlink" x="0px" y="0px"
	 width="363.017px" height="360px" viewBox="0 0 363.017 360" enable-background="new 0 0 363.017 360" xml:space="preserve">
<g id="Layer_2">
</g>
<g id="Layer_1">
	<path fill="#FFFFFF" stroke="#C4C6E4" stroke-width="10" stroke-miterlimit="10" d="M304.404,181.366
		c0,73.617-59.677,133.294-133.294,133.294c-73.617,0-133.294-59.677-133.294-133.294c0-73.614,59.677-133.293,133.294-133.293
		C244.727,48.073,304.404,107.751,304.404,181.366"/>
	<g>
		<path fill="#C4C6E4" d="M99.51,198.329c4.864,1.962,9.399,3.788,13.931,5.62c16.849,6.809,33.692,13.634,50.558,20.399
			c1.157,0.464,1.501,1.017,1.477,2.234c-0.087,4.336,0.351,8.605,1.931,12.706c2.674,6.938,8.504,10.242,15.855,9.182
			c6.826-0.984,11.039-5.299,14.423-10.782c3.906-6.329,6.645-13.206,9.31-20.111c9.545-24.729,17.941-49.859,26.21-75.034
			c0.488-1.486,0.97-2.974,1.532-4.699c-24.842-4.945-49.594-9.872-74.466-14.823c-1.241,3.385-2.455,6.683-3.658,9.984
			c-7.395,20.294-14.794,40.587-22.173,60.887c-0.857,2.359-2.185,4.2-4.81,4.629c-4.678,0.764-7.832-3.46-6.134-8.227
			c1.907-5.351,3.881-10.679,5.828-16.017c7.149-19.602,14.298-39.204,21.448-58.805c1.429-3.917,3.82-5.284,7.855-4.483
			c27.869,5.535,55.738,11.07,83.606,16.611c4.62,0.919,6.563,4.002,5.154,8.366c-9.917,30.717-20.018,61.371-31.913,91.397
			c-2.711,6.843-5.827,13.498-10.12,19.535c-5.993,8.428-14.103,12.795-24.468,13.428c-6.184,0.378-11.864-0.985-17.376-3.475
			c-15.762-7.12-31.478-14.341-47.271-21.392c-4.605-2.056-8.761-4.572-11.928-8.559c-4.596-5.786-6.169-12.49-5.831-19.706
			C98.615,204.321,99.133,201.467,99.51,198.329z"/>
		<path fill="#C4C6E4" d="M195.757,209.322c0.074,3.946-3.634,6.698-7.646,5.433c-8.31-2.62-16.581-5.369-24.843-8.136
			c-2.853-0.956-4.381-3.478-4.037-6.251c0.324-2.612,2.355-4.64,5.087-4.878c0.945-0.082,1.97,0.069,2.878,0.362
			c8.06,2.602,16.106,5.246,24.147,7.908C194.185,204.703,195.707,206.677,195.757,209.322z"/>
		<path fill="#C4C6E4" d="M168.699,177.701c-0.058-3.481,3.148-6.366,6.54-5.535c3.602,0.882,7.11,2.157,10.647,3.297
			c4.937,1.592,9.868,3.206,14.793,4.836c2.899,0.959,4.432,2.845,4.522,5.468c0.127,3.676-3.027,6.574-6.605,5.757
			c-3.042-0.695-5.993-1.801-8.971-2.765c-5.447-1.764-10.888-3.548-16.326-5.342C170.256,182.414,168.746,180.513,168.699,177.701z
			"/>
		<path fill="#C4C6E4" d="M215.504,160.718c0.115,3.921-3.478,6.619-7.62,5.525c-8.234-2.174-16.443-4.446-24.645-6.742
			c-2.805-0.785-4.583-3.256-4.454-5.864c0.129-2.608,2.074-4.851,4.848-5.325c0.975-0.167,2.071-0.034,3.04,0.227
			c8.082,2.175,16.154,4.393,24.216,6.641C213.827,155.999,215.425,157.993,215.504,160.718z"/>
		<path fill="#C4C6E4" d="M158.311,178.337c-3.817-0.089-6.526-2.595-6.451-5.966c0.07-3.156,2.688-5.672,5.795-5.571
			c3.833,0.124,6.613,2.679,6.481,5.956C164.01,175.909,161.401,178.409,158.311,178.337z"/>
		<path fill="#C4C6E4" d="M148.913,200.54c-3.667,0.048-6.329-2.553-6.293-5.927c0.035-3.311,2.697-5.62,6.117-5.534
			c3.531,0.089,6.221,2.697,6.14,5.954C154.795,198.288,152.267,200.623,148.913,200.54z"/>
		<path fill="#C4C6E4" d="M167.18,154.28c-3.567-0.057-6.322-2.588-6.319-5.806c0.003-3.239,2.635-5.712,6.015-5.651
			c3.695,0.067,6.356,2.588,6.269,5.943C173.061,152.023,170.561,154.334,167.18,154.28z"/>
	</g>
</g>
</svg>
