<?xml version="1.0" encoding="utf-8"?>
<!-- Generator: Adobe Illustrator 17.0.0, SVG Export Plug-In . SVG Version: 6.00 Build 0)  -->
<!DOCTYPE svg PUBLIC "-//W3C//DTD SVG 1.1//EN" "http://www.w3.org/Graphics/SVG/1.1/DTD/svg11.dtd">
<svg version="1.1" xmlns="http://www.w3.org/2000/svg" xmlns:xlink="http://www.w3.org/1999/xlink" x="0px" y="0px"
	 width="363.017px" height="360px" viewBox="0 0 363.017 360" enable-background="new 0 0 363.017 360" xml:space="preserve">
<g id="Layer_2">
</g>
<g id="Layer_1">
	<g>
		<path fill="#FFFFFF" stroke="#3B579C" stroke-width="10" stroke-miterlimit="10" d="M298.289,179.999
			c0,67.598-54.798,122.396-122.396,122.396c-67.598,0-122.396-54.798-122.396-122.396c0-67.596,54.798-122.395,122.396-122.395
			C243.491,57.604,298.289,112.403,298.289,179.999"/>
		<path fill="#3B579C" d="M210.518,153.741h-23.584v-15.468c0-5.809,3.85-7.163,6.562-7.163c2.705,0,16.643,0,16.643,0v-25.537
			l-22.921-0.089c-25.445,0-31.235,19.046-31.235,31.235v17.023h-14.715v26.314h14.715c0,33.771,0,74.461,0,74.461h30.951
			c0,0,0-41.091,0-74.461h20.885L210.518,153.741z"/>
	</g>
</g>
</svg>
