<?xml version="1.0" encoding="utf-8"?>
<!-- Generator: Adobe Illustrator 17.0.0, SVG Export Plug-In . SVG Version: 6.00 Build 0)  -->
<!DOCTYPE svg PUBLIC "-//W3C//DTD SVG 1.1//EN" "http://www.w3.org/Graphics/SVG/1.1/DTD/svg11.dtd">
<svg version="1.1" xmlns="http://www.w3.org/2000/svg" xmlns:xlink="http://www.w3.org/1999/xlink" x="0px" y="0px"
	 width="363.017px" height="360px" viewBox="0 0 363.017 360" enable-background="new 0 0 363.017 360" xml:space="preserve">
<g id="Layer_2">
</g>
<g id="Layer_1">
	<path fill="#FFFFFF" stroke="#EBA7A1" stroke-width="10" stroke-miterlimit="10" d="M318.961,181.842
		c0,75.914-61.539,137.453-137.453,137.453c-75.914,0-137.453-61.539-137.453-137.453c0-75.911,61.539-137.452,137.453-137.452
		C257.422,44.39,318.961,105.931,318.961,181.842"/>
	<path fill="#EBA7A1" d="M252.173,212.629c-3.179-5.142-7.374-5.658-11.689-1.857c-7.738,6.817-15.236,13.91-22.683,21.047
		c-1.078,1.034-1.284,2.959-1.948,4.447c-2.869,6.426-8.23,10.523-14.784,10.861c-12.751,0.656-25.57,0.045-38.359-0.15
		c-1.316-0.02-2.621-0.777-4.082-2.618c3.708-0.729,7.397-1.934,11.129-2.09c8.04-0.336,16.103-0.116,24.156-0.156
		c10.535-0.052,18.029-4.984,18.26-11.981c0.235-7.103-7.476-12.22-18.517-12.273c-3.511-0.017-7.022-0.028-10.532-0.001
		c-8.183,0.063-15.719-0.31-23.431-5.103c-10.062-6.253-21.734-5.582-32.645-0.454c-1.519,0.714-3.355,2.799-3.392,4.29
		c-0.283,11.333-0.155,22.676-0.155,34.743c16.854-0.332,30.076,10.801,45.45,13.425c22.969,3.921,46.149,3.441,62.615-17.332
		c7.492-9.452,13.776-19.862,20.607-29.838C252.173,215.936,252.173,214.283,252.173,212.629z"/>
	<path fill="#EBA7A1" d="M118.047,232.101c0-7.627-0.084-15.256,0.032-22.882c0.068-4.442-1.888-6.404-6.326-6.307
		c-20.226,0.439-17.943-2.655-18.005,16.907c-0.038,11.751,0.117,23.503-0.062,35.251c-0.077,5.043,1.958,7.045,6.983,6.958
		c19.837-0.345,17.229,2.158,17.33-16.94c0.023-4.329,0.003-8.658,0.003-12.987C118.017,232.101,118.032,232.101,118.047,232.101z"
		/>
	<path fill="#EBA7A1" d="M216.9,224.437c7.254-6.667,14.508-13.334,21.672-19.919c-3.271-1.926-6.377-1.228-12.63,5.029
		c-4.109,4.111-11.024,6.767-10.74,13.93C215.767,223.797,216.334,224.117,216.9,224.437z"/>
	<path fill="#EBA7A1" d="M209.325,216.565c6.704-5.792,13.407-11.584,20.111-17.376c-10.224,0.889-15.171,9.077-21.881,14.843
		C208.146,214.876,208.736,215.721,209.325,216.565z"/>
	<g>
		<path fill="#EBA7A1" d="M225.087,227.521c-0.562,0-1.146-0.181-1.841-0.569c-8.413-4.705-16.998-9.439-25.302-14.018
			c-5.679-3.131-11.36-6.258-17.041-9.385c-7.184-3.953-14.366-7.905-21.543-11.867c-9.062-5.002-18.116-10.015-27.171-15.028
			l-17.858-9.889l32.601-59.053l15.192,8.39l-3.857,2.341c-1.177,0.719-2.294,1.4-3.425,2.059c-0.767,0.446-1.546,0.873-2.325,1.301
			c-0.777,0.427-1.556,0.854-2.322,1.301c-1.664,0.971-2.66,2.238-2.881,3.663c-0.218,1.411,0.34,2.9,1.613,4.307
			c0.354,0.391,0.734,0.757,1.118,1.129c0.7,0.679,1.424,1.38,2.091,2.271l3.873,5.165l-11.413-5.808l-9.443,17.114
			c4.13,1.646,6.772,4.286,8.051,8.028c1.354,3.96,0.756,7.735-1.775,11.246l13.209,7.302c-3.216-9.193-2.564-17.92,1.95-25.987
			c4.561-8.149,11.673-13.283,21.171-15.296l-3.902-2.268l2.188-1.305c0.571-0.341,1.135-0.681,1.693-1.019
			c1.649-0.996,3.207-1.938,4.854-2.824c0.326-0.175,0.703-0.265,1.121-0.265c0.916,0,1.757,0.421,1.993,0.549
			c3.411,1.863,6.809,3.748,10.206,5.633c1.976,1.096,3.951,2.191,5.929,3.283c6.951,3.835,35.931,19.805,35.931,19.805l5.491,3.035
			c4.34,2.401,8.679,4.802,13.037,7.168c0.779,0.423,1.252,0.95,1.445,1.611c0.282,0.968-0.167,1.778-0.495,2.371
			c-4.065,7.352-8.117,14.695-12.169,22.039l-7.585,13.737c-3.226,5.835-6.562,11.867-9.797,17.822
			C227.415,226.133,226.662,227.521,225.087,227.521z M208.775,207.401c1.532-4.028,4.38-6.553,8.484-7.516
			c1.01-0.237,2.021-0.357,3.006-0.357c2.821,0,5.496,0.943,8.134,2.877l9.475-17.172c-4.015-1.472-6.718-4.145-8.047-7.964
			c-1.409-4.05-0.784-7.917,1.8-11.288l-13.497-7.444c3.322,9.159,2.765,17.9-1.673,26.029c-4.427,8.108-11.46,13.314-20.938,15.513
			L208.775,207.401z M173.955,189.262c0.31,0.202,0.881,0.501,1.438,0.792c0.372,0.195,0.777,0.408,1.063,0.539
			c0.18-0.303,0.412-0.762,0.571-1.074c0.233-0.461,0.946-1.864,2.666-1.864c0.365,0,0.748,0.062,1.204,0.194
			c1.29,0.374,2.527,0.563,3.676,0.563c3.026,0,5.534-1.271,7.668-3.888c3.569-4.378,4.238-8.343,2.104-12.476
			c-0.754-1.461-1.686-2.828-2.671-4.276c-0.4-0.586-0.8-1.173-1.187-1.766c-0.371-0.568-0.754-1.131-1.137-1.692
			c-0.636-0.936-1.294-1.902-1.901-2.901c-0.911-1.497-0.688-3.209,0.596-4.58c0.692-0.739,1.597-1.146,2.547-1.146
			c0.692,0,1.387,0.215,2.008,0.619c1.656,1.079,3.72,2.422,5.485,4.005c0.997,0.894,1.775,1.915,2.6,2.997
			c0.037,0.049,0.074,0.098,0.111,0.146l0.329-0.298c1.652-1.49,3.221-2.906,4.772-4.371c-1.801-1.959-3.662-3.978-5.618-5.786
			c-0.743-0.688-2.125-1.968-0.829-4.188c0.179-0.306,0.439-0.751,0.601-1.071c-0.272-0.161-0.672-0.369-1.05-0.564
			c-0.074-0.027-0.144-0.059-0.212-0.094c-0.46-0.24-0.932-0.486-1.241-0.621c-0.187,0.296-0.441,0.774-0.627,1.123
			c-0.238,0.448-0.965,1.813-2.624,1.813c-0.419,0-0.867-0.091-1.371-0.277c-1.31-0.483-2.633-0.729-3.931-0.729
			c-0.639,0-1.284,0.06-1.919,0.177c-5.769,1.06-7.89,7.934-8.402,10.016c-0.149,0.61-0.191,1.321-0.118,2.057
			c0.244,2.496,1.217,4.856,3.061,7.43c1.55,2.16,3.062,4.389,4.525,6.543c1.284,1.89,1.201,3.862-0.229,5.412
			c-0.72,0.781-1.595,1.177-2.599,1.177c-0.888,0-1.706-0.32-2.364-0.577c-3.045-1.191-5.232-3.446-7.143-5.705
			c-0.992-1.174-1.883-2.386-2.823-3.669c-0.262,0.479-0.517,0.96-0.771,1.441c-0.708,1.338-1.439,2.721-2.308,4.028
			c-0.722,1.086-0.589,1.536,0.148,2.261c1.51,1.482,3.014,2.972,4.572,4.516l2.756,2.727l-0.43,0.95
			c-0.09,0.206-0.194,0.444-0.313,0.676C174.367,188.38,174.087,188.929,173.955,189.262z"/>
		<path fill="#FFFFFF" d="M147.52,109.751c3.839,2.12,7.597,4.195,11.609,6.411c-1.801,1.09-3.406,2.091-5.04,3.043
			c-1.535,0.893-3.116,1.707-4.649,2.602c-4.191,2.446-4.878,6.679-1.623,10.273c0.986,1.088,2.157,2.008,3.12,3.292
			c-2.226-1.132-4.452-2.265-6.953-3.537c-3.561,6.453-7.244,13.129-11,19.937c4.258,1.302,7.401,3.588,8.801,7.685
			c1.415,4.14,0.376,7.831-2.643,11.211c6.03,3.333,11.929,6.594,17.827,9.854c0.146-0.038,0.292-0.077,0.438-0.115
			c-4.285-9.517-4.607-19.034,0.49-28.142c5.103-9.119,13.335-13.876,23.692-15.145c0.003-0.13,0.006-0.259,0.009-0.389
			c-1.573-0.914-3.146-1.828-4.784-2.779c2.21-1.318,4.311-2.637,6.49-3.81c0.111-0.06,0.253-0.086,0.41-0.086
			c0.41,0,0.925,0.175,1.275,0.366c5.391,2.944,10.751,5.944,16.129,8.912c11.974,6.607,23.954,13.202,35.93,19.805
			c6.177,3.406,12.338,6.843,18.537,10.207c1.103,0.599,0.778,1.171,0.347,1.951c-5.46,9.871-10.905,19.75-16.356,29.627
			c-4.407,7.985-8.84,15.956-13.195,23.969c-0.411,0.757-0.777,1.127-1.294,1.127c-0.304,0-0.659-0.127-1.108-0.378
			c-8.417-4.708-16.864-9.365-25.31-14.023c-12.858-7.09-25.729-14.156-38.584-21.252c-12.896-7.119-25.78-14.261-38.668-21.394
			c-1.631-0.902-3.26-1.806-5.049-2.797C126.764,147.348,137.099,128.628,147.52,109.751 M194.296,147.896
			c-0.244,0-0.522-0.062-0.849-0.183c-1.449-0.536-2.937-0.823-4.453-0.823c-0.724,0-1.454,0.065-2.189,0.201
			c-5.401,0.993-8.397,6.298-9.587,11.133c-0.202,0.82-0.238,1.719-0.155,2.563c0.298,3.039,1.571,5.695,3.335,8.156
			c1.537,2.144,3.02,4.328,4.503,6.511c0.807,1.189,0.961,2.413-0.09,3.553c-0.474,0.514-0.978,0.693-1.496,0.693
			c-0.594,0-1.207-0.235-1.818-0.474c-2.737-1.07-4.712-3.11-6.543-5.277c-1.409-1.666-2.65-3.474-4.094-5.39
			c-0.38,0.612-0.692,1.072-0.962,1.555c-1.076,1.928-2.024,3.94-3.242,5.774c-1.056,1.591-0.973,2.865,0.348,4.161
			c2.148,2.109,4.282,4.231,6.582,6.506c-0.041,0.09-0.151,0.354-0.28,0.607c-1.405,2.757-1.406,2.757,1.391,4.222
			c0.992,0.52,1.578,0.826,2.016,0.826c0.606,0,0.929-0.587,1.652-2.011c0.372-0.732,0.745-1.044,1.329-1.044
			c0.226,0,0.484,0.047,0.786,0.134c1.42,0.411,2.788,0.623,4.095,0.623c3.383,0,6.364-1.415,8.829-4.439
			c3.462-4.246,4.962-8.91,2.275-14.112c-1.115-2.159-2.599-4.13-3.934-6.174c-0.995-1.524-2.068-2.999-3.013-4.553
			c-0.589-0.968-0.355-1.959,0.409-2.776c0.433-0.463,0.942-0.671,1.452-0.671c0.407,0,0.816,0.133,1.188,0.375
			c1.833,1.194,3.682,2.411,5.303,3.865c1.3,1.165,2.274,2.692,3.523,4.218c2.314-2.096,4.603-4.13,6.817-6.242
			c0.206-0.196,0.112-1.054-0.141-1.329c-1.941-2.111-3.882-4.233-5.985-6.178c-0.844-0.781-1.191-1.235-0.552-2.33
			c1.424-2.438,1.364-2.473-1.127-3.762c-0.042-0.022-0.092-0.031-0.134-0.053c-1.076-0.562-1.702-0.889-2.168-0.889
			c-0.629,0-0.965,0.596-1.72,2.015C195.227,147.571,194.852,147.896,194.296,147.896 M209.65,209.599
			c1.136-4.385,3.676-7.251,7.951-8.254c0.914-0.214,1.801-0.317,2.662-0.317c3.148,0,5.964,1.371,8.587,3.662
			c3.758-6.812,7.429-13.465,11.225-20.345c-4.359-1.113-7.433-3.545-8.833-7.569c-1.435-4.122-0.501-7.924,2.732-11.212
			c-6.257-3.451-12.271-6.769-18.285-10.086c-0.109,0.096-0.218,0.191-0.326,0.287c4.351,9.416,4.811,18.858-0.225,28.082
			c-5.007,9.171-13.164,13.935-23.443,15.421c0.024,0.151,0.048,0.302,0.072,0.454C197.654,202.972,203.539,206.223,209.65,209.599
			 M146.344,105.674l-1.45,2.627l-17.281,31.302l-13.871,25.125l-1.448,2.622l2.62,1.452l1.72,0.953l3.33,1.845l11.533,6.385
			c9.044,5.008,18.088,10.015,27.138,15.011c7.139,3.94,14.282,7.872,21.426,11.803c5.721,3.148,11.442,6.297,17.16,9.45
			c8.325,4.59,16.896,9.317,25.294,14.014c0.583,0.326,1.484,0.76,2.572,0.76c1.636,0,2.958-0.906,3.93-2.694
			c3.243-5.968,6.587-12.016,9.821-17.865c1.122-2.029,2.244-4.058,3.364-6.088l4.055-7.349c4.097-7.427,8.195-14.854,12.3-22.276
			c0.384-0.695,1.086-1.963,0.628-3.53c-0.307-1.05-1.036-1.894-2.17-2.509c-4.333-2.352-8.724-4.782-12.971-7.131
			c-1.849-1.023-3.698-2.046-5.549-3.067l-14.725-8.115c-7.069-3.895-14.138-7.79-21.205-11.689
			c-1.984-1.094-3.965-2.193-5.946-3.292c-3.336-1.85-6.785-3.764-10.194-5.626c-0.403-0.22-1.476-0.733-2.713-0.733
			c-0.668,0-1.285,0.149-1.832,0.444c-1.682,0.905-3.331,1.902-4.925,2.865c-0.555,0.335-1.114,0.673-1.68,1.01l-4.378,2.611
			l2.957,1.717c-5.133,1.606-9.504,4.204-13.083,7.776l-7.437-9.909c-0.738-0.983-1.539-1.76-2.245-2.445
			c-0.381-0.369-0.74-0.718-1.051-1.06c-0.669-0.739-1.428-1.871-1.243-3.07c0.147-0.95,0.912-1.873,2.155-2.598
			c0.741-0.433,1.489-0.843,2.281-1.277c0.773-0.424,1.573-0.863,2.365-1.323c1.153-0.671,2.275-1.356,3.463-2.082
			c0.526-0.321,1.064-0.65,1.622-0.987l4.437-2.685l-4.54-2.507l-10.138-5.599l-1.47-0.812L146.344,105.674L146.344,105.674z
			 M137.256,150.239l7.953-14.415l4.367,2.222l11.025,5.608c-2.036,2.064-3.812,4.448-5.322,7.147
			c-4.144,7.406-5.189,15.327-3.132,23.629l-3.288-1.817l-5.293-2.926c2.043-3.517,2.401-7.271,1.058-11.2
			C143.361,154.794,140.937,152.073,137.256,150.239L137.256,150.239z M194.296,150.896c0.967,0,2.253-0.311,3.319-1.642
			c-0.806,2.577,0.997,4.245,1.646,4.845c1.554,1.437,3.06,3.024,4.525,4.607c-0.914,0.848-1.842,1.69-2.793,2.55
			c-0.571-0.714-1.187-1.417-1.906-2.062c-1.85-1.658-3.967-3.037-5.669-4.145c-0.865-0.564-1.842-0.862-2.825-0.862
			c-1.37,0-2.663,0.576-3.642,1.621c-1.745,1.863-2.045,4.31-0.783,6.386c0.625,1.028,1.293,2.009,1.939,2.958
			c0.379,0.556,0.757,1.112,1.125,1.675c0.393,0.602,0.799,1.198,1.204,1.794c0.959,1.408,1.864,2.738,2.577,4.117
			c1.851,3.585,1.255,6.928-1.934,10.839c-1.829,2.244-3.957,3.334-6.504,3.334c-1.008,0-2.105-0.17-3.26-0.504
			c-0.587-0.17-1.117-0.253-1.62-0.253c-1.011,0-2.353,0.328-3.425,1.748c0.008-0.018,0.016-0.035,0.023-0.051l0.024-0.054
			l0.85-1.898l-1.471-1.478l-2.041-2.021c-1.55-1.536-3.046-3.017-4.549-4.493c-0.041-0.04-0.075-0.076-0.103-0.107
			c0.035-0.066,0.084-0.15,0.153-0.254c0.765-1.153,1.418-2.339,2.038-3.503c0.474,0.623,0.957,1.234,1.47,1.841
			c2.038,2.411,4.386,4.822,7.742,6.134c0.734,0.287,1.74,0.68,2.91,0.68c1.42,0,2.7-0.574,3.701-1.659
			c1.914-2.074,2.051-4.793,0.368-7.273c-1.479-2.178-2.992-4.406-4.547-6.574c-1.684-2.349-2.57-4.478-2.788-6.701
			c-0.055-0.561-0.026-1.112,0.083-1.552c0.458-1.861,2.332-8.002,7.217-8.9c0.546-0.1,1.1-0.151,1.647-0.151
			c1.121,0,2.27,0.214,3.412,0.637C193.079,150.775,193.697,150.896,194.296,150.896L194.296,150.896z M199.446,200.535
			c8.116-2.696,14.262-7.805,18.327-15.251c4.066-7.447,5.031-15.371,2.896-23.635l8.786,4.846
			c-2.069,3.431-2.437,7.266-1.044,11.266c1.281,3.68,3.792,6.465,7.35,8.196l-7.347,13.315l-0.538,0.975
			c-2.453-1.49-4.966-2.221-7.611-2.221c-1.1,0-2.226,0.133-3.348,0.396c-4.004,0.939-7.01,3.291-8.844,6.876l-0.582-0.321
			L199.446,200.535L199.446,200.535z"/>
	</g>
	<path fill="#FFFFFF" d="M215.691,155.478c6.014,3.317,12.028,6.635,18.285,10.086c-3.233,3.288-4.167,7.09-2.732,11.212
		c1.401,4.024,4.474,6.457,8.834,7.569c-3.796,6.88-7.467,13.533-11.226,20.345c-3.342-2.919-6.994-4.343-11.25-3.345
		c-4.275,1.003-6.815,3.869-7.951,8.254c-6.111-3.376-11.996-6.626-17.881-9.877c-0.024-0.151-0.048-0.302-0.072-0.454
		c10.279-1.486,18.436-6.25,23.443-15.421c5.036-9.224,4.575-18.666,0.225-28.082C215.474,155.669,215.582,155.573,215.691,155.478z
		"/>
	<path fill="#FFFFFF" d="M173.584,186.555c-2.3-2.274-4.434-4.397-6.582-6.506c-1.32-1.296-1.404-2.57-0.348-4.161
		c1.217-1.834,2.166-3.846,3.242-5.774c0.27-0.483,0.581-0.943,0.962-1.555c1.445,1.916,2.686,3.724,4.094,5.39
		c1.832,2.167,3.806,4.207,6.544,5.277c1.145,0.447,2.297,0.882,3.314-0.219c1.051-1.139,0.898-2.364,0.09-3.553
		c-1.483-2.183-2.965-4.367-4.503-6.511c-1.764-2.461-3.037-5.117-3.335-8.156c-0.083-0.843-0.046-1.743,0.155-2.563
		c1.19-4.835,4.186-10.141,9.587-11.133c2.277-0.418,4.502-0.169,6.642,0.623c1.076,0.398,1.619,0.161,2.149-0.835
		c1.315-2.47,1.359-2.446,3.888-1.126c0.042,0.022,0.091,0.031,0.134,0.053c2.491,1.289,2.551,1.324,1.127,3.762
		c-0.64,1.095-0.292,1.55,0.552,2.33c2.102,1.945,4.044,4.067,5.985,6.178c0.253,0.276,0.347,1.133,0.141,1.329
		c-2.214,2.112-4.503,4.146-6.817,6.242c-1.249-1.526-2.224-3.053-3.523-4.218c-1.622-1.454-3.471-2.672-5.303-3.865
		c-0.839-0.547-1.861-0.536-2.64,0.296c-0.765,0.816-0.998,1.808-0.409,2.776c0.945,1.554,2.018,3.029,3.013,4.553
		c1.335,2.044,2.819,4.015,3.934,6.174c2.687,5.202,1.187,9.866-2.275,14.112c-3.417,4.192-7.827,5.292-12.924,3.816
		c-1.08-0.313-1.599-0.106-2.115,0.91c-1.246,2.453-1.304,2.423-3.668,1.185c-2.797-1.466-2.796-1.465-1.391-4.222
		C173.434,186.908,173.543,186.645,173.584,186.555z"/>
	
		<rect x="129.496" y="141.044" transform="matrix(0.8854 0.4649 -0.4649 0.8854 99.5663 -67.2794)" fill="#EBA7A1" width="113.42" height="54.415"/>
	
		<text transform="matrix(0.8833 0.4689 -0.4689 0.8833 162.4755 175.1146)" fill="#FFFFFF" font-family="'Rockwell'" font-size="57.2065">£</text>
	<g>
		<path fill="#EBA7A1" d="M231.365,153.79c-0.72,0-1.49-0.196-2.115-0.537c-11.999-6.562-25.032-13.721-41.016-22.531
			c-0.876-0.482-1.651-1.112-2.229-1.607c-0.287-0.246-1.159-0.994-1.401-1.029c-0.237,0-1.107,0.508-1.743,0.879
			c-3.119,1.818-6.49,3.725-10.007,5.349c-3.947,1.82-7.527,2.705-10.946,2.705c-0.396,0-0.795-0.012-1.195-0.036
			c-4.835-0.294-8.928-2.243-12.164-5.792c-0.627-0.688-0.984-1.506-1.3-2.229c-0.117-0.268-0.232-0.534-0.362-0.785l-0.333-0.644
			l0.297-0.661c0.105-0.236,0.191-0.463,0.271-0.674c0.216-0.566,0.439-1.152,0.889-1.672c0.588-0.68,1.366-1.327,2.312-1.924
			c2.19-1.376,4.397-2.725,6.604-4.072c4.625-2.826,9.407-5.748,13.911-8.871c3.445-2.39,7.129-3.551,11.26-3.551
			c1.32,0,2.677,0.113,4.146,0.347c6.135,0.975,12.424,1.731,18.506,2.463l2.56,0.309c0.059,0.008,0.12,0.011,0.182,0.011
			c0.447,0,1.012-0.159,1.44-0.404c5.164-2.958,10.244-5.971,15.006-8.804c0.428-0.255,0.954-0.516,1.604-0.516
			c0.632,0,1.215,0.24,1.781,0.736c11.816,10.342,21.706,22.162,29.395,35.133c0.778,1.312,0.801,2.492,0.074,3.827
			c-2.79,5.135-7.23,8.947-13.197,11.331c-2.785,1.112-5.73,1.805-8.579,2.475c-0.936,0.22-1.871,0.439-2.8,0.674
			C231.95,153.756,231.664,153.79,231.365,153.79z"/>
		<g>
			<path fill="#FFFFFF" d="M225.541,101.013c0.249,0,0.498,0.108,0.792,0.365c11.511,10.074,21.284,21.596,29.093,34.769
				c0.498,0.84,0.524,1.467,0.047,2.345c-2.796,5.145-7.17,8.551-12.437,10.656c-3.573,1.427-7.435,2.14-11.19,3.087
				c-0.149,0.038-0.313,0.055-0.483,0.055c-0.478,0-1.004-0.139-1.396-0.353c-13.685-7.483-27.351-14.999-41.011-22.528
				c-0.708-0.39-1.36-0.904-1.976-1.432c-1.111-0.953-1.712-1.391-2.377-1.391c-0.621,0-1.299,0.382-2.501,1.083
				c-3.225,1.881-6.494,3.72-9.88,5.282c-3.258,1.503-6.708,2.568-10.319,2.568c-0.366,0-0.733-0.011-1.102-0.033
				c-4.382-0.267-8.17-2.041-11.147-5.306c-0.67-0.734-0.976-1.8-1.439-2.693c0.362-0.808,0.516-1.504,0.926-1.978
				c0.553-0.639,1.256-1.183,1.978-1.636c6.866-4.315,13.914-8.365,20.57-12.981c3.352-2.324,6.742-3.283,10.404-3.283
				c1.268,0,2.569,0.115,3.912,0.328c7.011,1.113,14.07,1.925,21.12,2.779c0.118,0.014,0.239,0.021,0.362,0.021
				c0.739,0,1.561-0.244,2.187-0.603c5.039-2.886,10.035-5.846,15.026-8.815C225.018,101.131,225.28,101.013,225.541,101.013
				 M225.541,98.013c-1.019,0-1.802,0.388-2.371,0.727c-4.779,2.843-9.873,5.864-14.983,8.79c-0.222,0.127-0.535,0.206-0.696,0.206
				l-2.607-0.314c-6.053-0.729-12.312-1.483-18.405-2.449c-1.549-0.246-2.982-0.365-4.382-0.365c-4.447,0-8.409,1.249-12.114,3.818
				c-4.464,3.095-9.222,6.003-13.823,8.814c-2.178,1.331-4.429,2.706-6.634,4.092c-1.068,0.671-1.96,1.416-2.649,2.212
				c-0.623,0.719-0.919,1.496-1.156,2.12c-0.071,0.187-0.146,0.386-0.239,0.594l-0.593,1.322l0.667,1.286
				c0.115,0.222,0.216,0.459,0.32,0.696c0.344,0.788,0.772,1.768,1.566,2.638c3.459,3.793,8.017,5.964,13.181,6.279
				c0.424,0.026,0.856,0.039,1.284,0.039c3.641,0,7.428-0.93,11.576-2.844c3.579-1.651,6.986-3.578,10.135-5.415
				c0.237-0.138,0.566-0.33,0.844-0.482c0.143,0.115,0.329,0.27,0.57,0.476c0.631,0.541,1.483,1.232,2.48,1.782
				c15.966,8.8,29,15.96,41.02,22.533c0.838,0.458,1.871,0.721,2.835,0.721c0.423,0,0.832-0.049,1.217-0.146
				c0.921-0.233,1.849-0.451,2.778-0.669c2.901-0.682,5.901-1.387,8.79-2.541c6.3-2.517,10.997-6.557,13.96-12.009
				c0.98-1.803,0.946-3.539-0.102-5.307c-7.77-13.108-17.762-25.051-29.698-35.496C227.47,98.386,226.538,98.013,225.541,98.013
				L225.541,98.013z"/>
		</g>
	</g>
</g>
</svg>
