<?xml version="1.0" encoding="utf-8"?>
<!-- Generator: Adobe Illustrator 17.0.0, SVG Export Plug-In . SVG Version: 6.00 Build 0)  -->
<!DOCTYPE svg PUBLIC "-//W3C//DTD SVG 1.1//EN" "http://www.w3.org/Graphics/SVG/1.1/DTD/svg11.dtd">
<svg version="1.1" xmlns="http://www.w3.org/2000/svg" xmlns:xlink="http://www.w3.org/1999/xlink" x="0px" y="0px"
	 width="363.017px" height="360px" viewBox="0 0 363.017 360" enable-background="new 0 0 363.017 360" xml:space="preserve">
<g id="Layer_2">
</g>
<g id="Layer_1">
	<g>
		<path fill="#B0CAC3" d="M181.506,180.567l119.169,69.074c-25.308,44.005-68.848,69.066-119.169,69.066V180.567z"/>
	</g>
	<g>
		<path fill="#EBA8A0" d="M181.506,180.567L62.329,111.501c25.307-44.005,67.905-69.074,119.176-69.074V180.567z"/>
	</g>
	<g>
		<path fill="#3B8BB1" d="M181.521,180.552L62.352,249.625c-25.311-44.005-25.311-94.135,0-138.14L181.521,180.552z"/>
	</g>
	<g>
		<path fill="#B6B8DC" d="M181.506,180.567v138.14c-51.272,0-93.869-25.061-119.176-69.066L181.506,180.567z"/>
	</g>
	<g>
		<path fill="#C2DA98" d="M181.499,180.567l119.169-69.066c25.308,44.005,25.308,94.135,0,138.14L181.499,180.567z"/>
	</g>
	<g>
		<path fill="#98D3E3" d="M181.506,180.567V42.427c50.321,0,93.861,25.069,119.169,69.074L181.506,180.567z"/>
	</g>
	<path fill="#FFFFFF" d="M306.844,180.563c0,69.745-56.32,126.283-125.782,126.283c-69.476,0-125.796-56.538-125.796-126.283
		c0-69.731,56.32-126.269,125.796-126.269C250.523,54.294,306.844,110.833,306.844,180.563z"/>
	<g>
		<g>
			<path fill="#3B8BB1" d="M173.999,108.301v65.2h-64.737v-65.2H173.999 M178.999,103.301h-74.737v75.2h74.737V103.301
				L178.999,103.301z"/>
		</g>
	</g>
	<g>
		<g>
			<rect x="115.538" y="114.647" fill="#3B8BB1" width="52.183" height="52.507"/>
		</g>
		<g>
			<rect x="208.01" y="182.611" fill="#3B8BB1" width="24.939" height="25.086"/>
		</g>
		<g>
			<rect x="232.949" y="207.697" fill="#3B8BB1" width="24.939" height="25.086"/>
		</g>
		<g>
			<rect x="183.071" y="207.697" fill="#3B8BB1" width="24.939" height="25.086"/>
		</g>
		<g>
			<rect x="208.01" y="232.783" fill="#3B8BB1" width="24.939" height="25.086"/>
		</g>
		<g>
			<rect x="104.222" y="182.611" fill="#3B8BB1" width="24.939" height="25.086"/>
		</g>
		<g>
			<rect x="129.161" y="207.697" fill="#3B8BB1" width="24.939" height="25.086"/>
		</g>
		<g>
			<rect x="154.099" y="182.611" fill="#3B8BB1" width="24.939" height="25.086"/>
		</g>
		<g>
			<rect x="104.222" y="232.783" fill="#3B8BB1" width="24.939" height="25.086"/>
		</g>
		<g>
			<rect x="154.099" y="232.783" fill="#3B8BB1" width="24.939" height="25.086"/>
		</g>
		<g>
			<g>
				<rect x="183.071" y="103.272" fill="#3B8BB1" width="24.939" height="25.086"/>
			</g>
			<g>
				<rect x="208.01" y="128.358" fill="#3B8BB1" width="24.939" height="25.086"/>
			</g>
			<g>
				<rect x="232.949" y="103.272" fill="#3B8BB1" width="24.939" height="25.086"/>
			</g>
			<g>
				<rect x="183.071" y="153.444" fill="#3B8BB1" width="24.939" height="25.086"/>
			</g>
			<g>
				<rect x="232.949" y="153.444" fill="#3B8BB1" width="24.939" height="25.086"/>
			</g>
		</g>
	</g>
</g>
</svg>
