<?xml version="1.0" encoding="utf-8"?>
<!-- Generator: Adobe Illustrator 17.0.0, SVG Export Plug-In . SVG Version: 6.00 Build 0)  -->
<!DOCTYPE svg PUBLIC "-//W3C//DTD SVG 1.1//EN" "http://www.w3.org/Graphics/SVG/1.1/DTD/svg11.dtd">
<svg version="1.1" xmlns="http://www.w3.org/2000/svg" xmlns:xlink="http://www.w3.org/1999/xlink" x="0px" y="0px"
	 width="363.017px" height="360px" viewBox="0 0 363.017 360" enable-background="new 0 0 363.017 360" xml:space="preserve">
<g id="Layer_2">
</g>
<g id="Layer_1">
	<g>
		<circle fill="#FFFFFF" stroke="#E9A56B" stroke-width="5.8853" stroke-miterlimit="10" cx="181.508" cy="179.999" r="134.514"/>
		<g>
			<path fill="#E9A56B" d="M258.579,207.34c9.798-9.039,15.184-21.28,15.184-35.662c0-14.381-5.178-26.421-14.976-35.46
				l-0.958-0.909l8.205-8.898l1.38,1.314c12.195,11.251,18.452,26.053,18.452,43.953c0,17.9-6.826,33.253-19.021,44.503
				l-0.818,0.757l-8.202-8.894"/>
			<path fill="#E9A56B" d="M248.9,144.994l-8.447,9.16l1.033,1.014c4.721,4.356,6.645,9.581,6.645,16.511
				c0,6.93-1.993,12.227-6.714,16.582l-0.961,0.947l8.448,9.161l1.125-1.094c7.189-6.632,10.562-15.044,10.562-25.596
				C260.591,161.127,256.089,151.626,248.9,144.994"/>
			<path fill="#E9A56B" d="M101.99,195.517c-13.166,0-23.839-10.673-23.839-23.838s10.673-23.838,23.839-23.838"/>
			<g>
				<path fill="#E9A56B" d="M158.878,143.324h-2.183h-52.859c-1.573,0-2.848,1.275-2.848,2.848v51.014
					c0,1.573,1.275,2.848,2.848,2.848h52.859h2.183c0,0,20.755,0,52.914,30.006c1.82,1.699,4.8,0.431,4.8-2.058V115.375
					c0-2.49-2.979-3.757-4.8-2.058C179.633,143.324,158.878,143.324,158.878,143.324z M160.169,188.054v-19.862
					c0-1.573-1.275-2.848-2.848-2.848h-44.764c-1.573,0-2.848-1.275-2.848-2.848v-6.049c0-1.573,1.275-2.848,2.848-2.848h47.612
					c0,0,15.718,0,40.992-19.776c1.869-1.463,4.612-0.16,4.617,2.213l0.146,71.796c0.005,2.383-2.747,3.694-4.622,2.223
					c-20.069-15.739-34.137-19.021-39.131-19.706C161.016,190.192,160.169,189.219,160.169,188.054z"/>
			</g>
			<path fill="#E9A56B" d="M215.608,151.017c7.138,4.119,11.942,11.829,11.942,20.662c0,8.838-4.809,16.552-11.953,20.669"/>
			<g>
				<path fill="#E9A56B" d="M116.419,208.322h27.884c1.573,0,2.848,1.275,2.848,2.848v11.193c0,0-0.484,4.842,2.905,7.505
					c2.767,2.174,8.815,8.113,11.03,13.822c0.707,1.821-0.745,3.77-2.699,3.77H129.11c-1.364,0-2.536-0.955-2.793-2.295
					c-0.96-4.996-3.527-16.81-7.169-21.834c-3.101-4.277-4.997-8.696-5.549-11.707C113.283,209.895,114.66,208.322,116.419,208.322z
					"/>
			</g>
		</g>
	</g>
</g>
</svg>
