<?xml version="1.0" encoding="utf-8"?>
<!-- Generator: Adobe Illustrator 17.0.0, SVG Export Plug-In . SVG Version: 6.00 Build 0)  -->
<!DOCTYPE svg PUBLIC "-//W3C//DTD SVG 1.1//EN" "http://www.w3.org/Graphics/SVG/1.1/DTD/svg11.dtd">
<svg version="1.1" xmlns="http://www.w3.org/2000/svg" xmlns:xlink="http://www.w3.org/1999/xlink" x="0px" y="0px"
	 width="363.017px" height="360px" viewBox="0 0 363.017 360" enable-background="new 0 0 363.017 360" xml:space="preserve">
<g id="Layer_2">
</g>
<g id="Layer_1">
	<circle fill="#FFFFFF" stroke="#99D3E3" stroke-width="10" stroke-miterlimit="10" cx="181.651" cy="181.367" r="132.78"/>
	<path fill-rule="evenodd" clip-rule="evenodd" fill="none" d="M182.017,242.166c-19.244,0-38.485-0.051-57.733,0.045
		c-3.521,0.013-6.006-1.085-8.232-3.887c-38.924-48.917-11.427-120.708,51.003-131.724c51.398-9.068,93.372,26.983,98.795,70.167
		c2.884,22.957-3.075,43.425-17.37,61.736c-2.094,2.684-4.516,3.703-7.925,3.686c-19.511-0.1-39.022-0.051-58.537-0.051
		C182.017,242.151,182.017,242.151,182.017,242.166z M181.997,230.73c18.042,0,36.078-0.037,54.12,0.044
		c2.667,0.012,4.423-0.723,5.99-2.97c8.461-12.089,12.898-25.453,12.931-40.038c0.096-43.2-38.746-76.226-82.623-70.433
		c-53.582,7.068-80.607,67.221-49.745,110.63c1.471,2.062,3.038,2.835,5.61,2.822C146.183,230.673,164.09,230.725,181.997,230.73z"
		/>
	<path fill="#FFFFFF" stroke="#010101" stroke-width="1.4868" stroke-miterlimit="10" d="M120.731,240.891"/>
	<path fill-rule="evenodd" clip-rule="evenodd" fill="#99D3E3" d="M182.035,238.516c-18.222,0-36.44-0.044-54.659,0.041
		c-3.34,0.015-5.688-1.025-7.794-3.674c-36.851-46.31-10.817-114.277,48.289-124.703c48.657-8.584,88.388,25.547,93.527,66.425
		c2.729,21.737-2.915,41.114-16.45,58.446c-1.98,2.533-4.273,3.506-7.495,3.488c-18.474-0.095-36.947-0.047-55.418-0.047
		C182.035,238.504,182.035,238.507,182.035,238.516z"/>
	<path fill-rule="evenodd" clip-rule="evenodd" fill="#FFFFFF" d="M182.942,217.559c-2.572-1.424-5.766-2.343-7.605-4.345
		c-10.831-11.76-21.427-23.698-31.84-35.781c-1.342-1.562-2.003-4.53-1.433-6.441c1.231-4.132,5.973-4.786,10.207-1.627
		c7.705,5.748,15.288,11.639,22.91,17.484c5.112,3.925,10.251,7.814,15.302,11.809c3.877,3.069,5.015,7.321,3.341,11.617
		C192.297,214.206,188.169,216.79,182.942,217.559z"/>
	<path fill-rule="evenodd" clip-rule="evenodd" fill="#FFFFFF" d="M142.612,155.92c-2.22,0.07-7.863-5.445-7.814-7.629
		c0.059-2.602,2.723-4.179,4.924-2.623c2.07,1.462,3.951,3.315,5.488,5.316C146.782,153.019,145.134,155.844,142.612,155.92z"/>
	<path fill-rule="evenodd" clip-rule="evenodd" fill="#FFFFFF" d="M243.907,191.99c-1.603,1.495-9.574,1.068-11.031-0.591
		c-1.727-1.972-0.812-4.889,1.883-5.164c2.537-0.258,5.209-0.108,7.717,0.379C245.035,187.109,245.728,190.289,243.907,191.99z"/>
	<path fill-rule="evenodd" clip-rule="evenodd" fill="#FFFFFF" d="M229.519,148.42c0,2.166-5.831,7.502-8.067,7.38
		c-2.65-0.143-4.173-2.801-2.511-4.901c1.57-1.973,3.521-3.751,5.618-5.186C226.694,144.248,229.525,145.948,229.519,148.42z"/>
	<path fill-rule="evenodd" clip-rule="evenodd" fill="#FFFFFF" d="M179.677,138.172c-1.654-1.441-1.886-9.243-0.316-10.801
		c1.863-1.849,4.91-1.205,5.417,1.407c0.478,2.454,0.541,5.068,0.263,7.552C184.743,138.864,181.572,139.81,179.677,138.172z"/>
	<path fill-rule="evenodd" clip-rule="evenodd" fill="#FFFFFF" d="M130.628,191.851c-1.567,1.541-9.547,1.313-11.047-0.312
		c-1.78-1.925-0.942-4.865,1.75-5.213c2.528-0.322,5.201-0.233,7.727,0.186C131.625,186.944,132.405,190.1,130.628,191.851z"/>
</g>
</svg>
