<?xml version="1.0" encoding="utf-8"?>
<!-- Generator: Adobe Illustrator 17.0.0, SVG Export Plug-In . SVG Version: 6.00 Build 0)  -->
<!DOCTYPE svg PUBLIC "-//W3C//DTD SVG 1.1//EN" "http://www.w3.org/Graphics/SVG/1.1/DTD/svg11.dtd">
<svg version="1.1" xmlns="http://www.w3.org/2000/svg" xmlns:xlink="http://www.w3.org/1999/xlink" x="0px" y="0px"
	 width="363.017px" height="360px" viewBox="0 0 363.017 360" enable-background="new 0 0 363.017 360" xml:space="preserve">
<g id="Layer_2">
</g>
<g id="Layer_1">
	<path fill="#FFFFFF" stroke="#EEAFC7" stroke-width="10.5212" stroke-miterlimit="10" d="M317.689,181.853
		c0,75.202-60.97,136.178-136.177,136.178c-75.213,0-136.185-60.976-136.185-136.178c0-75.213,60.972-136.191,136.185-136.191
		C256.719,45.662,317.689,106.64,317.689,181.853"/>
	<path fill-rule="evenodd" clip-rule="evenodd" fill="#FFFFFF" d="M229.616,241.069c-0.01,5.352,4.213,9.814,9.299,9.831
		c5.807,0.02,10.109-4.207,10.113-9.93c0.004-5.111-4.447-9.48-9.664-9.486C233.948,231.478,229.625,235.727,229.616,241.069z"/>
	<g>
		<path fill="#EEAFC7" d="M111.385,132.13c5.8,6.119,10.998,11.837,16.456,17.295c5.9,5.901,9.488,5.775,15.591-0.063
			c12.435-11.895,12.479-13.295-0.076-25.465c-3.93-3.809-8.185-7.284-12.381-10.991c7.729-6.541,24.368-2.959,31.709,2.786
			c9.167,7.175,13.631,16.592,13.209,28.04c-0.158,4.281,1.171,7.061,4.06,9.927c22.33,22.152,44.566,44.4,66.775,66.674
			c9.13,9.156,9.282,21.95,0.514,29.642c-7.944,6.969-19.202,6.396-27.349-1.698c-22.313-22.171-44.599-44.37-66.705-66.746
			c-3.654-3.699-7.25-5.44-12.605-5.573C119.085,175.427,104.332,154.086,111.385,132.13z M246.432,235.968
			c-0.066-5.979-5.374-10.973-11.57-10.886c-6.36,0.089-11.186,5.008-11.065,11.278c0.118,6.092,5.393,11.217,11.434,11.11
			C241.03,247.366,246.496,241.753,246.432,235.968z"/>
		<path fill="#EEAFC7" d="M193.572,156.821c-1.697-2.331-2.922-4.012-4.438-6.093c0.826-0.992,1.772-2.318,2.906-3.457
			c11.019-11.07,22.003-22.176,33.134-33.132c7.593-7.474,18.008-7.657,24.825-0.703c6.642,6.776,6.465,16.923-0.822,24.351
			c-11.963,12.196-24.137,24.185-36.714,36.752c-1.779-1.617-3.404-3.093-5.821-5.289c11.384-11.242,22.447-22.165,33.508-33.092
			c1.501-1.483,3.27-2.8,4.387-4.534c0.847-1.316,0.854-3.172,1.236-4.788c-1.627,0.496-3.517,0.63-4.821,1.573
			c-2.027,1.467-3.667,3.474-5.452,5.271c-10.528,10.597-21.051,21.199-32.303,32.532c-2.165-2.333-3.805-4.099-6.072-6.543
			c11.8-11.67,23.251-22.832,34.463-34.229c2.116-2.151,3.283-5.236,4.888-7.891c-2.814,1.474-6.173,2.389-8.35,4.515
			C216.673,133.249,205.519,144.739,193.572,156.821z"/>
		<path fill="#EEAFC7" d="M156.97,196.594c3.488,3.752,5.585,6.009,8.526,9.173c-6.065,5.844-11.994,11.428-17.753,17.181
			c-1.899,1.897-4.655,4.156-4.788,6.383c-0.485,8.119-6.301,11.284-12.009,14.878c-5.494,3.458-10.881,7.088-17.033,11.113
			c-1.877-2.181-3.622-4.21-5.715-6.642c5.392-8.174,10.796-16.414,16.278-24.603c0.549-0.82,1.53-1.837,2.375-1.9
			c11.287-0.851,16.209-10.497,23.391-16.931C152.697,203.046,154.381,199.985,156.97,196.594z"/>
	</g>
	<path fill="#FFFFFF" stroke="#EEAFC7" stroke-width="3.0061" stroke-miterlimit="10" d="M246.432,235.968
		c0.064,5.786-5.402,11.398-11.201,11.501c-6.041,0.107-11.316-5.018-11.434-11.11c-0.122-6.27,4.705-11.189,11.065-11.278
		C241.058,224.994,246.366,229.989,246.432,235.968z"/>
</g>
</svg>
