<?xml version="1.0" encoding="utf-8"?>
<!-- Generator: Adobe Illustrator 17.0.0, SVG Export Plug-In . SVG Version: 6.00 Build 0)  -->
<!DOCTYPE svg PUBLIC "-//W3C//DTD SVG 1.1//EN" "http://www.w3.org/Graphics/SVG/1.1/DTD/svg11.dtd">
<svg version="1.1" xmlns="http://www.w3.org/2000/svg" xmlns:xlink="http://www.w3.org/1999/xlink" x="0px" y="0px"
	 width="363.017px" height="360px" viewBox="0 0 363.017 360" enable-background="new 0 0 363.017 360" xml:space="preserve">
<g id="Layer_2">
</g>
<g id="Layer_1">
	<circle fill="#FFFFFF" stroke="#2AAAE2" stroke-width="10.5212" stroke-miterlimit="10" cx="182.893" cy="181.846" r="134.231"/>
	<path fill-rule="evenodd" clip-rule="evenodd" fill="#2AAAE2" d="M227.632,172.182c-0.003-0.837-0.044-1.682-0.182-2.507
		c-0.359-2.169-1.699-3.484-3.865-3.643c-2.168-0.159-4.371-0.168-6.537,0.003c-2.89,0.223-3.784,1.315-3.799,4.168
		c-0.009,1.932,0.01,3.86-0.009,5.792c-0.017,1.512-0.597,2.754-2.266,2.749c-1.657,0-2.238-1.163-2.215-2.734
		c0.033-2.686,0.007-5.372,0.007-8.058c0-7.67-0.881-8.54-8.521-8.405c-4.438,0.073-5.957,1.645-5.969,6.174
		c-0.01,3.609,0.112,7.227-0.124,10.82c-0.053,0.793-1.277,1.923-2.133,2.104c-0.543,0.118-1.545-1.138-2.065-1.95
		c-0.306-0.484-0.091-1.307-0.091-1.979c-0.002-4.782,0.05-9.567-0.023-14.353c-0.052-3.423-1.506-4.931-4.867-5.12
		c-1.753-0.095-3.529-0.079-5.277,0.08c-2.658,0.246-4.104,1.758-4.183,4.43c-0.098,3.27-0.035,6.545-0.04,9.818
		c-0.004,2.266,0.211,4.566-0.118,6.782c-0.13,0.895-1.462,1.614-2.244,2.413c-0.703-0.785-1.542-1.497-2.058-2.39
		c-0.296-0.508-0.062-1.315-0.062-1.984c0-17.626,0-22.202-0.003-39.827c0-0.925,0.036-1.855-0.084-2.766
		c-0.466-3.551-3.283-6.121-6.782-6.262c-3.693-0.146-6.691,2.183-7.365,5.842c-0.223,1.228-0.247,2.503-0.247,3.758
		c-0.013,25.599-0.009,38.145-0.009,63.745c0,0.757,0.248,1.646-0.066,2.235c-0.48,0.895-1.346,1.581-2.049,2.353
		c-0.749-0.742-1.918-1.372-2.149-2.253c-0.375-1.415-0.144-2.991-0.145-4.504c-0.011-3.311-0.003-6.619-0.003-9.93
		c-0.232-0.095-0.465-0.189-0.693-0.284c-4.135,3.681-8.52,7.136-11.158,12.23c-2.25,4.35-2.586,8.947-1.534,13.701
		c1.73,7.83,8.284,11.873,13.399,17.609c0-1.084,13.985,16.965,24.525,17.018c10.409,0.05,20.816,0.023,31.225,0.004
		c4.334-0.007,8.254-1.343,11.706-3.949c5.82-4.395,8.115-10.41,8.097-17.549C227.606,207.768,227.64,189.975,227.632,172.182"/>
	<path fill-rule="evenodd" clip-rule="evenodd" fill="#2AAAE2" d="M152.092,142.678c0-3.455-0.063-6.598,0.013-9.735
		c0.172-7.037,5.198-12.029,11.917-11.925c6.528,0.103,11.397,5.265,11.446,12.153c0.02,3.07,0.004,6.14,0.004,9.849
		c5.989-7.021,5.269-16.753-1.143-22.469c-6.41-5.714-16.4-5.136-22.197,1.174C146.447,127.911,146.728,137.742,152.092,142.678"/>
</g>
</svg>
