<?xml version="1.0" encoding="utf-8"?>
<!-- Generator: Adobe Illustrator 17.0.0, SVG Export Plug-In . SVG Version: 6.00 Build 0)  -->
<!DOCTYPE svg PUBLIC "-//W3C//DTD SVG 1.1//EN" "http://www.w3.org/Graphics/SVG/1.1/DTD/svg11.dtd">
<svg version="1.1" xmlns="http://www.w3.org/2000/svg" xmlns:xlink="http://www.w3.org/1999/xlink" x="0px" y="0px"
	 width="363.017px" height="360px" viewBox="0 0 363.017 360" enable-background="new 0 0 363.017 360" xml:space="preserve">
<g id="Layer_2">
</g>
<g id="Layer_1">
	<path fill="#FFFFFF" stroke="#B0CBC3" stroke-width="10" stroke-miterlimit="10" d="M316.952,180
		c0,71.402-57.882,129.283-129.283,129.283c-71.4,0-129.281-57.881-129.281-129.283c0-71.398,57.881-129.284,129.281-129.284
		C259.07,50.717,316.952,108.602,316.952,180"/>
	<g>
		<path fill-rule="evenodd" clip-rule="evenodd" fill="#B0CBC3" d="M137.705,121.461c0,35.525,0,71.052,0,106.725
			c35.622,0,71.174,0,106.725,0c0,2.371,0,4.745,0,7.116c-37.945,0-75.893,0-113.839,0c0-37.947,0-75.893,0-113.841
			C132.963,121.461,135.334,121.461,137.705,121.461z"/>
		<path fill-rule="evenodd" clip-rule="evenodd" fill="#B0CBC3" d="M230.2,121.461c-3.282,8.72-6.564,17.44-9.852,26.156
			c-0.036,0.097-0.134,0.17-0.271,0.335c-2.217-2.706-4.413-5.387-6.651-8.116c-19.754,16.159-39.442,32.266-59.242,48.467
			c-1.518-1.854-3.007-3.672-4.552-5.561c19.774-16.183,39.485-32.312,59.233-48.472c-2.229-2.732-4.418-5.419-6.727-8.25
			c3.553-0.581,6.896-1.129,10.239-1.678c5.514-0.898,11.029-1.794,16.543-2.7c0.138-0.019,0.262-0.121,0.391-0.182
			C229.607,121.461,229.904,121.461,230.2,121.461z"/>
		<path fill-rule="evenodd" clip-rule="evenodd" fill="#B0CBC3" d="M216.04,154.147c2.184,2.662,4.223,5.144,6.417,7.817
			c2.556-6.757,5.046-13.334,7.654-20.222c0,26.604,0,52.885,0,79.248c-4.642,0-9.321,0-14.071,0
			C216.04,198.797,216.04,176.598,216.04,154.147z"/>
		<path fill-rule="evenodd" clip-rule="evenodd" fill="#B0CBC3" d="M208.798,152.769c0,22.809,0,45.466,0,68.213
			c-4.655,0-9.335,0-14.172,0c0-0.36,0-0.75,0-1.142c0-18.154,0.006-36.308-0.018-54.463c0-0.783,0.235-1.27,0.844-1.764
			c4.207-3.396,8.377-6.84,12.562-10.264C208.232,153.172,208.466,153.014,208.798,152.769z"/>
		<path fill-rule="evenodd" clip-rule="evenodd" fill="#B0CBC3" d="M187.457,170.235c0,16.99,0,33.825,0,50.75
			c-4.664,0-9.344,0-14.176,0c0-0.366,0-0.759,0-1.15c0-12.334,0.007-24.668-0.018-37.002c0-0.787,0.242-1.276,0.847-1.766
			c4.207-3.395,8.384-6.828,12.571-10.247C186.896,170.643,187.126,170.484,187.457,170.235z"/>
		<path fill-rule="evenodd" clip-rule="evenodd" fill="#B0CBC3" d="M151.967,220.99c0-8.037,0-15.997,0-24.172
			c0.47,0.51,0.825,0.895,1.253,1.355c4.255-3.48,8.509-6.953,12.893-10.535c0,11.225,0,22.248,0,33.352
			C161.432,220.99,156.751,220.99,151.967,220.99z"/>
	</g>
</g>
</svg>
