<?xml version="1.0" encoding="utf-8"?>
<!-- Generator: Adobe Illustrator 17.0.0, SVG Export Plug-In . SVG Version: 6.00 Build 0)  -->
<!DOCTYPE svg PUBLIC "-//W3C//DTD SVG 1.1//EN" "http://www.w3.org/Graphics/SVG/1.1/DTD/svg11.dtd">
<svg version="1.1" xmlns="http://www.w3.org/2000/svg" xmlns:xlink="http://www.w3.org/1999/xlink" x="0px" y="0px"
	 width="363.017px" height="360px" viewBox="0 0 363.017 360" enable-background="new 0 0 363.017 360" xml:space="preserve">
<g id="Layer_2">
</g>
<g id="Layer_1">
	<g>
		<path fill="#FFFFFF" stroke="#EECD74" stroke-width="6.1034" stroke-miterlimit="10" d="M318.487,180.006
			c0,75.641-61.327,136.972-136.975,136.972c-75.654,0-136.983-61.331-136.983-136.972c0-75.652,61.329-136.985,136.983-136.985
			C257.16,43.021,318.487,104.355,318.487,180.006"/>
		<path fill="#EECD74" d="M182.004,81.71c-54.338-0.175-98.619,43.787-98.771,98.061c-0.151,54.132,44.019,98.622,98.295,98.519
			c54.829-0.104,97.94-44.049,98.254-97.634C280.102,126.222,236.173,81.885,182.004,81.71z M199.27,107.122l0.552-0.125
			c0.59-0.112,1.306-0.253,2.118-0.336c0.813-0.121,1.725-0.144,2.715-0.198c0.988,0.011,2.056-0.018,3.17,0.097
			c1.12,0.052,2.279,0.24,3.473,0.421c1.189,0.201,2.398,0.497,3.616,0.795c1.194,0.391,2.434,0.679,3.604,1.164
			c1.172,0.477,2.371,0.867,3.471,1.439c1.104,0.557,2.233,1.001,3.231,1.621c1.014,0.585,2,1.132,2.913,1.681
			c0.885,0.594,1.721,1.156,2.493,1.674c0.384,0.259,0.752,0.507,1.102,0.742c0.334,0.259,0.65,0.505,0.948,0.736
			c0.593,0.461,1.11,0.863,1.536,1.194c0.849,0.66,1.334,1.037,1.334,1.037s-0.53-0.313-1.457-0.86
			c-0.462-0.273-1.023-0.603-1.667-0.983c-0.321-0.189-0.663-0.391-1.023-0.603c-0.374-0.188-0.768-0.385-1.178-0.591
			c-0.818-0.409-1.704-0.852-2.641-1.321c-0.959-0.42-1.984-0.827-3.031-1.265c-1.032-0.473-2.179-0.759-3.294-1.154
			c-1.112-0.412-2.3-0.631-3.452-0.938c-1.152-0.316-2.346-0.43-3.488-0.652c-1.158-0.128-2.294-0.258-3.39-0.301
			c-1.098-0.023-2.153-0.061-3.146,0.024c-0.996,0.022-1.918,0.174-2.768,0.269c-0.837,0.16-1.611,0.273-2.262,0.463
			c-0.666,0.155-0.561,0.134-1.013,0.279c-0.424,0.16-0.513,0.174-1.076,0.369c-0.21,0.099-0.84,0.366-0.84,0.366l-1.936-4.642
			L199.27,107.122z M128.806,118.029c0.426-0.331,0.943-0.733,1.536-1.194c0.297-0.231,0.614-0.477,0.948-0.736
			c0.35-0.236,0.718-0.484,1.102-0.742c0.772-0.518,1.608-1.08,2.493-1.674c0.913-0.549,1.899-1.096,2.913-1.681
			c0.998-0.62,2.127-1.064,3.231-1.621c1.1-0.573,2.299-0.963,3.471-1.439c1.17-0.486,2.411-0.774,3.605-1.164
			c1.217-0.298,2.426-0.594,3.616-0.795c1.194-0.181,2.353-0.369,3.473-0.421c1.114-0.115,2.182-0.086,3.17-0.097
			c0.99,0.055,1.902,0.077,2.715,0.198c0.812,0.083,1.527,0.224,2.118,0.336l0.552,0.125l1.388,0.404l-1.936,4.642
			c0,0-0.629-0.267-0.84-0.366c-0.563-0.195-0.651-0.209-1.076-0.369c-0.452-0.145-0.347-0.124-1.013-0.279
			c-0.652-0.19-1.426-0.303-2.262-0.463c-0.85-0.095-1.772-0.247-2.768-0.269c-0.993-0.084-2.047-0.046-3.146-0.024
			c-1.096,0.043-2.232,0.173-3.39,0.301c-1.142,0.222-2.335,0.336-3.488,0.652c-1.152,0.307-2.341,0.526-3.452,0.938
			c-1.115,0.396-2.261,0.681-3.294,1.154c-1.046,0.438-2.072,0.845-3.031,1.265c-0.937,0.469-1.823,0.912-2.641,1.321
			c-0.411,0.206-0.804,0.403-1.178,0.591c-0.36,0.212-0.702,0.414-1.023,0.603c-0.644,0.38-1.205,0.711-1.667,0.983
			c-0.927,0.547-1.457,0.86-1.457,0.86S127.957,118.689,128.806,118.029z M146.303,125.08c12.077,0,21.868,14.018,21.868,31.31
			c0,11.97-4.693,22.367-11.587,27.636c2.558-3.232,4.14-7.659,4.14-12.548c0-9.89-6.457-17.908-14.421-17.908
			c-7.965,0-14.421,8.018-14.421,17.908c0,4.889,1.582,9.316,4.14,12.548c-6.894-5.269-11.587-15.666-11.587-27.636
			C124.435,139.098,134.226,125.08,146.303,125.08z M236.056,215.501c-0.766,1.03-1.55,2.083-2.348,3.157
			c-0.048,0.06-0.097,0.121-0.145,0.182c-0.32,0.372-0.641,0.747-0.965,1.124c-1.366,1.551-2.677,3.239-4.262,4.737
			c-0.769,0.774-1.546,1.557-2.331,2.347c-0.803,0.772-1.679,1.481-2.529,2.236c-3.396,3.029-7.308,5.709-11.47,8.123
			c-1.064,0.568-2.131,1.137-3.202,1.709c-1.076,0.565-2.215,1.005-3.327,1.516l-1.632,0.719c-0.035,0.014-0.069,0.028-0.104,0.042
			l-1.679,0.605c-1.162,0.397-2.309,0.861-3.492,1.202c-4.715,1.456-9.608,2.323-14.469,2.763
			c-4.868,0.459-9.704,0.229-14.344-0.297c-4.651-0.517-9.079-1.587-13.189-2.898c-4.128-1.278-7.882-2.983-11.248-4.771
			c-0.834-0.467-1.65-0.924-2.449-1.371c-0.783-0.476-1.528-0.982-2.265-1.456c-1.496-0.914-2.788-1.997-4.057-2.932
			c-1.216-0.97-2.292-1.978-3.316-2.874c-0.032-0.03-0.063-0.06-0.095-0.09c-0.933-0.965-1.792-1.854-2.571-2.66
			c-0.03-0.034-0.06-0.069-0.091-0.103c-0.765-0.947-1.449-1.793-2.046-2.532c-0.147-0.188-0.288-0.369-0.423-0.543
			c-0.105-0.154-0.205-0.302-0.301-0.444c-0.192-0.283-0.366-0.54-0.522-0.771c-0.007-0.01-0.013-0.02-0.02-0.029
			c-0.513-0.757-0.295-1.787,0.479-2.274l5.685-3.575c0.773-0.486,1.794-0.238,2.255,0.551c0.007,0.011,0.013,0.022,0.02,0.033
			c0.14,0.24,0.297,0.508,0.47,0.803c0.086,0.148,0.177,0.302,0.271,0.463c0.092,0.145,0.181,0.251,0.277,0.386
			c0.368,0.504,0.784,1.086,1.242,1.75c0.028,0.038,0.057,0.076,0.086,0.113c0.568,0.673,1.195,1.415,1.875,2.219
			c0.032,0.035,0.065,0.07,0.097,0.105c0.787,0.774,1.595,1.652,2.543,2.518c1.011,0.842,2.011,1.827,3.239,2.683
			c0.6,0.443,1.201,0.918,1.844,1.371c0.662,0.43,1.339,0.869,2.031,1.318c2.806,1.736,5.998,3.464,9.588,4.837
			c3.569,1.404,7.475,2.637,11.637,3.377c4.15,0.749,8.532,1.261,12.997,1.133c4.457-0.11,9.003-0.601,13.447-1.656
			c1.116-0.241,2.199-0.604,3.303-0.899l1.592-0.455c0.037-0.012,0.074-0.024,0.111-0.036l1.552-0.567
			c1.064-0.407,2.16-0.744,3.198-1.206c1.038-0.469,2.073-0.936,3.104-1.402c4.053-2.008,7.934-4.295,11.367-6.974
			c0.859-0.667,1.747-1.29,2.565-1.979c0.804-0.709,1.601-1.412,2.389-2.107c1.783-1.471,3.257-3.188,4.837-4.71
			c0.231-0.244,0.464-0.488,0.695-0.732c0.304-0.355,0.605-0.707,0.904-1.057c0.525-0.615,1.042-1.223,1.553-1.823
			c0.182-0.213,0.497-0.244,0.719-0.073l0.844,0.652C236.145,215.104,236.179,215.335,236.056,215.501z M226.995,184.026
			c2.558-3.232,4.14-7.659,4.14-12.548c0-9.89-6.457-17.908-14.421-17.908c-7.965,0-14.421,8.018-14.421,17.908
			c0,4.889,1.582,9.316,4.14,12.548c-6.894-5.269-11.587-15.666-11.587-27.636c0-17.292,9.791-31.31,21.868-31.31
			c12.077,0,21.868,14.018,21.868,31.31C238.582,168.36,233.888,178.757,226.995,184.026z"/>
	</g>
</g>
</svg>
