<?xml version="1.0" encoding="utf-8"?>
<!-- Generator: Adobe Illustrator 17.0.0, SVG Export Plug-In . SVG Version: 6.00 Build 0)  -->
<!DOCTYPE svg PUBLIC "-//W3C//DTD SVG 1.1//EN" "http://www.w3.org/Graphics/SVG/1.1/DTD/svg11.dtd">
<svg version="1.1" xmlns="http://www.w3.org/2000/svg" xmlns:xlink="http://www.w3.org/1999/xlink" x="0px" y="0px"
	 width="363.017px" height="360px" viewBox="0 0 363.017 360" enable-background="new 0 0 363.017 360" xml:space="preserve">
<g id="Layer_2">
</g>
<g id="Layer_1">
	<g>
		<path fill="#FFFFFF" stroke="#2FAAE1" stroke-width="10" stroke-miterlimit="10" d="M313.042,179.999
			c0,73.711-59.754,133.465-133.465,133.465c-73.711,0-133.465-59.754-133.465-133.465c0-73.709,59.754-133.464,133.465-133.464
			C253.288,46.535,313.042,106.29,313.042,179.999"/>
		<path fill="#2FAAE1" d="M260.266,132.634c-5.615,2.496-11.657,4.179-17.997,4.932c6.473-3.875,11.437-10.014,13.777-17.337
			c-6.055,3.593-12.758,6.2-19.897,7.608c-5.714-6.089-13.858-9.896-22.87-9.896c-17.302,0-31.331,14.029-31.331,31.334
			c0,2.452,0.276,4.843,0.812,7.14c-26.042-1.308-49.133-13.781-64.587-32.739c-2.697,4.626-4.241,10.008-4.241,15.755
			c0,10.869,5.531,20.462,13.939,26.079c-5.134-0.164-9.967-1.575-14.193-3.922c-0.003,0.13-0.003,0.264-0.003,0.397
			c0,15.179,10.801,27.84,25.137,30.723c-2.629,0.713-5.398,1.097-8.256,1.097c-2.021,0-3.984-0.195-5.897-0.564
			c3.99,12.447,15.56,21.509,29.269,21.761c-10.724,8.405-24.231,13.415-38.914,13.415c-2.527,0-5.022-0.149-7.475-0.44
			c13.87,8.895,30.339,14.078,48.032,14.078c57.637,0,89.151-47.744,89.151-89.151c0-1.358-0.028-2.713-0.087-4.058
			C250.755,144.44,256.069,138.919,260.266,132.634z"/>
	</g>
</g>
</svg>
