<?xml version="1.0" encoding="utf-8"?>
<!-- Generator: Adobe Illustrator 17.0.0, SVG Export Plug-In . SVG Version: 6.00 Build 0)  -->
<!DOCTYPE svg PUBLIC "-//W3C//DTD SVG 1.1//EN" "http://www.w3.org/Graphics/SVG/1.1/DTD/svg11.dtd">
<svg version="1.1" id="Layer_1" xmlns="http://www.w3.org/2000/svg" xmlns:xlink="http://www.w3.org/1999/xlink" x="0px" y="0px"
	 width="48.226px" height="47.941px" viewBox="0 0 48.226 47.941" enable-background="new 0 0 48.226 47.941" xml:space="preserve">
<g>
	<path fill="none" stroke="#4BAADF" stroke-width="2" stroke-miterlimit="10" d="M3.811,4.871c0.407-1.13,1.16-1.45,2.159-1.446
		c6.17,0.028,12.34,0.015,18.51,0.012c0.52,0,1.005,0.09,1.404,0.524c0.374,0.407,0.536,0.921,0.538,1.509
		c0.004,1.189,0.01,2.379-0.001,3.568c-0.012,1.232-0.672,2.017-1.724,2.018c-6.388,0.008-12.777,0-19.165,0.008
		c-0.89,0.001-1.403-0.558-1.72-1.464C3.811,8.024,3.811,6.448,3.811,4.871z"/>
	<path fill="none" stroke="#4BAADF" stroke-width="2" stroke-miterlimit="10" d="M3.811,16.357c0.339-1.132,1.042-1.527,2.029-1.523
		c4.572,0.022,9.145,0.009,13.717,0.01c1.415,0,2.027,0.716,2.027,2.369c0,1.045,0.005,2.089-0.001,3.134
		c-0.007,1.328-0.646,2.118-1.771,2.121c-4.75,0.011-9.5,0.002-14.249,0.008c-0.898,0.001-1.442-0.542-1.751-1.486
		C3.811,19.446,3.811,17.901,3.811,16.357z"/>
	<path fill="none" stroke="#4BAADF" stroke-width="2" stroke-miterlimit="10" d="M3.811,27.746c0.35-1.123,1.05-1.509,2.04-1.497
		c2.977,0.037,5.954,0.011,8.931,0.017c0.27,0.001,0.552,0.014,0.809,0.101c0.717,0.243,1.136,0.96,1.147,1.948
		c0.013,1.174,0.017,2.348-0.001,3.522c-0.019,1.244-0.66,2.037-1.719,2.045c-3.168,0.024-6.337,0.014-9.505,0.004
		c-0.872-0.003-1.413-0.569-1.702-1.507C3.811,30.835,3.811,29.291,3.811,27.746z"/>
	<path fill="none" stroke="#4BAADF" stroke-width="2" stroke-miterlimit="10" d="M3.811,39.136c0.359-1.114,1.054-1.514,2.046-1.475
		c1.403,0.055,2.809,0.01,4.214,0.015c1.176,0.005,1.817,0.756,1.827,2.143c0.008,1.108,0.009,2.216,0,3.324
		c-0.012,1.373-0.675,2.147-1.838,2.151c-1.364,0.006-2.729-0.039-4.091,0.015c-1,0.039-1.748-0.319-2.156-1.445
		C3.811,42.288,3.811,40.712,3.811,39.136z"/>
	<path fill="none" stroke="#4BAADF" stroke-width="2" stroke-miterlimit="10" d="M35.492,28.319c0.098-2.56,0.199-5.047,0.285-7.535
		c0.091-2.602,0.174-5.205,0.247-7.808c0.017-0.598,0.22-0.978,0.704-1.207c1.113-0.527,2.212-0.588,3.341-0.057
		c0.548,0.258,0.759,0.705,0.784,1.358c0.103,2.633,0.21,5.267,0.327,7.899c0.103,2.311,0.227,4.62,0.33,6.931
		c0.015,0.334,0.125,0.431,0.401,0.426c0.915-0.018,1.83,0,2.745-0.009c0.419-0.004,0.752,0.157,0.943,0.612
		c0.183,0.434,0.096,0.834-0.133,1.219c-1.785,3.013-3.939,5.627-6.269,8.05c-0.478,0.498-0.92,0.497-1.394,0.006
		c-2.335-2.417-4.484-5.037-6.268-8.05c-0.236-0.399-0.333-0.811-0.123-1.26c0.198-0.423,0.517-0.581,0.92-0.578
		C33.356,28.326,34.377,28.319,35.492,28.319z"/>
</g>
</svg>
