<?xml version="1.0" encoding="utf-8"?>
<!-- Generator: Adobe Illustrator 17.0.0, SVG Export Plug-In . SVG Version: 6.00 Build 0)  -->
<!DOCTYPE svg PUBLIC "-//W3C//DTD SVG 1.1//EN" "http://www.w3.org/Graphics/SVG/1.1/DTD/svg11.dtd">
<svg version="1.1" id="Layer_1" xmlns="http://www.w3.org/2000/svg" xmlns:xlink="http://www.w3.org/1999/xlink" x="0px" y="0px"
	 width="51.333px" height="47.941px" viewBox="0 0 51.333 47.941" enable-background="new 0 0 51.333 47.941" xml:space="preserve">
<g>
	<path fill="#4BA9DF" d="M14.191,18.221c0-2.049,0.01-4.023-0.003-5.997c-0.012-1.891,0.369-3.695,1.263-5.359
		c1.811-3.37,4.598-5.486,8.404-5.984c4.995-0.653,8.851,1.286,11.486,5.569c1.094,1.778,1.506,3.768,1.496,5.85
		c-0.009,1.775-0.002,3.549-0.002,5.324c0,0.18,0,0.36,0,0.597c0.928,0,1.796,0.046,2.658-0.009
		c2.272-0.144,3.561,1.569,3.546,3.533c-0.054,7.282-0.021,14.565-0.022,21.848c0,2.18-1.278,3.458-3.465,3.458
		c-9.376,0.001-18.751,0.001-28.127,0c-1.697,0-2.892-0.83-3.292-2.308c-0.095-0.35-0.127-0.726-0.128-1.09
		c-0.007-7.35-0.008-14.699-0.004-22.049c0.001-1.723,0.886-2.975,2.422-3.298c0.644-0.135,1.332-0.07,2-0.083
		C12.99,18.213,13.556,18.221,14.191,18.221z M25.507,44.969c4.705,0,9.41,0.001,14.115-0.001c0.948,0,1.306-0.357,1.306-1.303
		c0.001-7.35,0.001-14.701,0-22.051c0-0.985-0.336-1.33-1.326-1.332c-1.289-0.003-2.578,0.016-3.867,0.015
		c-8.103-0.004-16.206-0.013-24.309-0.016c-1,0-1.349,0.362-1.349,1.375c-0.001,7.3-0.001,14.6,0,21.9
		c0,1.069,0.345,1.412,1.417,1.412C16.164,44.969,20.835,44.969,25.507,44.969z M34.745,18.194c0.013-0.134,0.027-0.215,0.027-0.297
		c0.001-1.909,0.057-3.82-0.022-5.725c-0.043-1.04-0.169-2.122-0.509-3.097C32.46,3.967,27.099,1.513,22.049,3.48
		c-3.32,1.293-5.541,4.41-5.732,7.826c-0.121,2.17-0.036,4.352-0.041,6.528c0,0.112,0.023,0.224,0.039,0.36
		C22.459,18.194,28.579,18.194,34.745,18.194z"/>
	<path fill="#4BA9DF" d="M23.44,34.453c0-0.167-0.009-0.335,0.002-0.502c0.04-0.623-0.064-1.152-0.47-1.704
		c-0.788-1.071-0.755-2.272-0.027-3.378c0.717-1.09,1.795-1.56,3.076-1.341c1.299,0.222,2.168,1.027,2.485,2.318
		c0.244,0.993,0.01,1.909-0.646,2.721c-0.16,0.198-0.269,0.492-0.28,0.747c-0.037,0.818,0,1.639-0.025,2.457
		c-0.035,1.138-0.91,1.985-2.026,1.996c-1.104,0.011-2.011-0.833-2.078-1.96c-0.027-0.45-0.004-0.903-0.004-1.354
		C23.444,34.453,23.442,34.453,23.44,34.453z"/>
</g>
<g>
	<path fill="#4BA9DF" d="M72.703,18.373c-0.09-2.659,0.011-5.257-0.309-7.802c-0.475-3.775-3.692-6.802-7.449-7.384
		c-5.046-0.782-9.569,2.355-10.549,7.34c-0.124,0.631-0.157,1.288-0.163,1.933c-0.019,2.197-0.004,4.394-0.012,6.591
		c-0.001,0.244-0.026,0.506-0.116,0.728c-0.173,0.423-0.521,0.647-0.987,0.61c-0.433-0.034-0.755-0.257-0.873-0.691
		c-0.06-0.221-0.091-0.456-0.092-0.685c-0.007-2.214-0.009-4.428-0.003-6.641c0.015-5.014,3.001-9.258,7.768-10.827
		c5.747-1.892,11.832,1.07,13.997,6.648c0.544,1.401,0.753,2.855,0.767,4.343c0.016,1.748,0.004,3.495,0.004,5.243
		c0,0.178,0,0.357,0,0.594c0.269,0,0.48,0,0.692,0c7.507,0,15.014,0.008,22.521-0.007c1.379-0.003,2.443,0.501,3.039,1.755
		c0.219,0.462,0.315,1.024,0.317,1.541c0.02,7.34,0.014,14.681,0.013,22.022c0,2.034-1.297,3.34-3.336,3.344
		c-3.163,0.007-6.325,0.002-9.488,0.002c-6.192,0-12.384,0.001-18.576-0.001c-1.687-0.001-2.877-0.825-3.272-2.296
		c-0.098-0.363-0.127-0.755-0.127-1.133c-0.007-7.274-0.007-14.548-0.004-21.822c0.001-1.749,0.877-3.001,2.416-3.324
		c0.608-0.128,1.258-0.067,1.889-0.079C71.365,18.365,71.96,18.373,72.703,18.373z M83.849,44.96c4.66,0,9.32,0,13.979,0
		c1.039,0,1.364-0.329,1.364-1.38c0-7.273,0.001-14.545,0-21.818c0-1.007-0.33-1.34-1.352-1.34c-9.319-0.002-18.638-0.002-27.957,0
		c-1.003,0-1.355,0.355-1.355,1.352c-0.002,7.273-0.001,14.545,0,21.818c0,1.021,0.356,1.368,1.393,1.368
		C74.562,44.96,79.206,44.96,83.849,44.96z"/>
	<path fill="#4BA9DF" d="M81.809,34.46c0-0.166-0.01-0.333,0.002-0.499c0.041-0.605-0.077-1.112-0.466-1.643
		c-0.78-1.067-0.753-2.257-0.03-3.359c0.712-1.084,1.782-1.553,3.056-1.337c1.291,0.219,2.156,1.018,2.472,2.301
		c0.244,0.987,0.012,1.897-0.638,2.705c-0.159,0.198-0.269,0.488-0.281,0.742c-0.037,0.813,0,1.629-0.025,2.442
		c-0.035,1.132-0.901,1.974-2.01,1.988c-1.097,0.014-2.001-0.824-2.069-1.944c-0.028-0.464-0.005-0.93-0.005-1.396
		C81.813,34.46,81.811,34.46,81.809,34.46z"/>
</g>
</svg>
